<svg xmlns="http://www.w3.org/2000/svg" width="420" height="96" viewBox="0 0 420 96" fill="none">
  <defs>
    <linearGradient id="g4" x1="0" y1="0" x2="1" y2="1">
      <stop offset="0%" stop-color="#22C55E"></stop>
      <stop offset="100%" stop-color="#6366F1"></stop>
    </linearGradient>
  </defs>

  <rect x="8" y="8" width="80" height="80" rx="20" fill="#020617"></rect>

  <!-- Lotus petals -->
  <path d="M48 26C42 36 42 52 48 62C54 52 54 36 48 26Z" fill="url(#g4)"></path>
  <path d="M30 34C34 42 36 52 40 60C34 56 28 46 30 34Z" fill="url(#g4)"></path>
  <path d="M66 34C64 46 62 56 56 60C60 52 62 42 66 34Z" fill="url(#g4)"></path>

  <!-- Cross -->
  <rect x="45" y="38" width="6" height="20" rx="2" fill="white"></rect>
  <rect x="38" y="45" width="20" height="6" rx="2" fill="white"></rect>

  <text x="110" y="60" font-size="36" font-family="Inter, system-ui" font-weight="700" fill="white">Aarogya</text>
  <text x="255" y="60" font-size="36" font-family="Inter, system-ui" font-weight="600" fill="#94A3B8">Sathi</text>
</svg>
